<svg width="19" height="19" viewBox="0 0 19 19" fill="none" xmlns="http://www.w3.org/2000/svg">
<path d="M3.79704 1.17962C3.68616 1.27538 3.48458 1.4568 3.34346 1.5828C3.20739 1.70375 2.82941 2.02629 2.51191 2.2934C2.19441 2.55546 1.88699 2.81753 1.83155 2.86792C1.77612 2.91832 1.635 3.04431 1.52413 3.15015C1.40822 3.25598 1.24191 3.47773 1.15623 3.639C1.02016 3.89602 1 3.98674 1 4.31936C1 4.53103 1.0252 4.78301 1.0504 4.87877C1.14615 5.24163 1.31246 5.7204 1.42334 5.9623C1.48885 6.09838 1.57957 6.29492 1.62492 6.39068C1.67028 6.48643 1.72572 6.60235 1.75092 6.64266C1.78115 6.68298 1.85171 6.81905 1.90715 6.94505C2.02306 7.19703 2.13897 7.40366 2.28009 7.61533C2.33552 7.69596 2.41112 7.82196 2.45648 7.90259C2.56231 8.0941 3.00076 8.74422 3.16203 8.94581C3.23259 9.03652 3.41906 9.26835 3.57025 9.4649C3.98351 9.99911 4.67899 10.8407 4.77474 10.9264C4.8201 10.9667 4.89569 11.0574 4.94105 11.123C5.02673 11.2389 5.93387 12.2267 6.31689 12.6097C6.67471 12.9625 7.70785 13.915 8.31766 14.4391C8.84683 14.8977 9.0333 15.0489 9.66326 15.5226C9.87997 15.6889 10.4343 16.082 10.6762 16.2483C10.772 16.3139 10.8879 16.3995 10.9282 16.4399C10.9685 16.4751 11.0845 16.5457 11.1802 16.591C11.276 16.6364 11.4826 16.7523 11.6338 16.8481C11.785 16.9438 12.0269 17.0799 12.173 17.1454C12.3141 17.216 12.4452 17.2966 12.4653 17.3218C12.4805 17.352 12.5913 17.4024 12.7072 17.4327C12.8232 17.4629 12.9693 17.5284 13.0348 17.5839C13.1003 17.6343 13.2364 17.6947 13.3422 17.7099C13.443 17.73 13.6648 17.8006 13.8412 17.8661C14.0881 17.9568 14.2796 17.987 14.6727 17.9971C15.1616 18.0072 15.2019 17.9971 15.4388 17.8611C15.721 17.6947 15.8621 17.5637 16.3207 17.0245C16.4971 16.8178 16.6937 16.591 16.7541 16.5205C16.8196 16.4499 17.0162 16.2131 17.1976 15.9913C17.3791 15.7696 17.626 15.4773 17.7419 15.3462C17.8629 15.2102 17.9737 15.0741 17.9939 15.0388C18.0846 14.8826 17.9435 14.6961 17.4043 14.2526C17.1019 14.0057 16.7844 13.7386 16.6987 13.6579C16.4568 13.4362 15.2523 12.4232 15.0608 12.2821C14.9046 12.1662 14.6475 11.9344 14.33 11.632C14.1889 11.4959 13.9773 11.506 13.7807 11.6572C13.69 11.7277 13.6043 11.7832 13.5892 11.7832C13.5741 11.7832 13.4229 11.8789 13.2515 11.9999C13.0802 12.1158 12.8635 12.2569 12.7728 12.3123C12.682 12.3678 12.546 12.4635 12.4704 12.524C12.3897 12.5895 12.299 12.6399 12.2637 12.6399C12.2285 12.6399 12.173 12.6752 12.1378 12.7155C12.1025 12.7609 11.9714 12.8617 11.8505 12.9423C11.6388 13.0885 11.6237 13.0885 11.4927 13.0078C11.4171 12.9625 10.1723 11.7428 8.72083 10.3015C6.74023 8.32089 6.07499 7.63549 6.04475 7.50949C6.00443 7.37342 6.01451 7.30791 6.10523 7.15671C6.1657 7.05592 6.24634 6.93497 6.28161 6.89465C6.34209 6.82913 6.77047 6.18909 6.92166 5.94215C6.9519 5.89679 7.03253 5.78591 7.11317 5.6952C7.18876 5.60448 7.24924 5.50369 7.24924 5.46841C7.24924 5.43313 7.30468 5.34242 7.37523 5.26178C7.57682 5.02492 7.54658 4.85357 7.23412 4.51591C7.09301 4.35464 6.91158 4.15305 6.83598 4.06233C6.46304 3.6138 5.1628 2.07669 5.08216 1.98597C5.02673 1.9255 4.90073 1.77935 4.80498 1.65335C4.20022 0.907476 4.13974 0.877237 3.79704 1.17962ZM4.33629 1.92046C4.57315 2.21276 5.83812 3.72467 5.96915 3.87082C6.38745 4.32944 6.73519 4.77293 6.78055 4.89893C6.81582 5.01988 6.80574 5.09043 6.70999 5.26682C6.64951 5.38778 6.54872 5.53393 6.49328 5.59441C6.43785 5.65488 6.39249 5.7204 6.39249 5.7456C6.39249 5.77079 6.29673 5.92703 6.18082 6.09334C5.63149 6.87953 5.54078 7.02568 5.53574 7.066C5.53574 7.08616 5.4803 7.17183 5.40975 7.25751C5.33919 7.33814 5.28375 7.4591 5.28375 7.52461C5.28375 7.61533 6.01955 8.38136 8.33278 10.6946C11.6439 14.0057 11.5179 13.9049 11.785 13.6227C11.8505 13.5521 11.921 13.4967 11.9462 13.4967C11.9866 13.4967 12.2738 13.3152 12.6669 13.0381C12.7526 12.9826 12.8937 12.8869 12.9895 12.8264C13.0852 12.7659 13.2465 12.6601 13.3473 12.5895C13.9672 12.1712 13.9319 12.1863 14.1083 12.2367C14.199 12.267 14.33 12.3426 14.4056 12.4131C14.4762 12.4837 14.7836 12.7508 15.086 13.0028C15.3934 13.2548 15.6958 13.5118 15.7663 13.5773C16.0234 13.8242 17.0464 14.6558 17.0868 14.6558C17.1069 14.6558 17.1623 14.7364 17.2027 14.8423L17.2783 15.0237L17.0414 15.3311C16.9104 15.5025 16.7642 15.6839 16.7138 15.7393C16.6634 15.7948 16.5576 15.9208 16.4719 16.0165C16.3862 16.1123 16.2754 16.2383 16.2199 16.2937C16.1695 16.3491 15.9579 16.5961 15.7462 16.843C15.5396 17.09 15.3229 17.3218 15.2674 17.3571C15.0205 17.5335 14.1486 17.4831 13.7605 17.2764C13.6597 17.221 13.5338 17.1757 13.4884 17.1757C13.4078 17.1757 12.9844 16.9841 12.6417 16.7926C12.5712 16.7574 12.42 16.6818 12.3091 16.6263C12.1932 16.5709 12.0823 16.5054 12.0622 16.4701C12.042 16.4399 11.911 16.3592 11.7699 16.2937C11.6237 16.2282 11.4171 16.1072 11.3062 16.0216C11.1953 15.9359 11.024 15.825 10.9282 15.7696C10.8325 15.7192 10.7065 15.6285 10.6561 15.568C10.6006 15.5075 10.5402 15.4622 10.5099 15.4622C10.4847 15.4622 10.389 15.4017 10.2932 15.321C10.2025 15.2454 10.0362 15.1144 9.92028 15.0338C9.69854 14.8725 8.60492 13.9654 8.03039 13.4715C7.38027 12.9121 6.79063 12.3325 5.83812 11.3246C5.51558 10.9869 5.43998 10.8962 4.65883 9.94367C4.33629 9.55562 4.04398 9.1978 4.00367 9.15244C3.96335 9.10708 3.88775 9.00629 3.83736 8.92565C3.72648 8.74926 3.4745 8.41664 3.35858 8.29569C3.30819 8.24529 3.26787 8.17474 3.26283 8.13946C3.26283 8.10922 3.16203 7.94291 3.03604 7.7766C2.91509 7.61029 2.7639 7.36838 2.70846 7.23231C2.64798 7.10128 2.57743 6.99544 2.55727 6.99544C2.53207 6.99544 2.45648 6.87449 2.38592 6.72834C2.3204 6.58723 2.23977 6.431 2.21457 6.39068C2.09362 6.19413 1.86179 5.63976 1.82651 5.48353C1.81139 5.38778 1.75092 5.21643 1.69548 5.11059C1.56949 4.86869 1.51405 4.21352 1.59973 3.96658C1.6602 3.78515 1.82651 3.5886 2.12889 3.34166C2.22969 3.25598 2.40104 3.11487 2.50183 3.02415C3.82728 1.83982 3.93311 1.75415 4.09942 1.78439C4.1851 1.79951 4.29093 1.85998 4.33629 1.92046Z" fill="white" stroke="white" stroke-width="0.4"/>
<path d="M11.044 3.0393C10.1066 3.98676 9.87482 4.24379 9.8597 4.36978C9.84458 4.51089 9.94537 4.62681 11.0239 5.71035C12.0671 6.76364 12.2183 6.89468 12.3594 6.89468C12.566 6.89468 12.6315 6.82916 12.6013 6.64269C12.5862 6.52678 12.3796 6.28991 11.7496 5.65995C10.8828 4.79312 10.8122 4.68224 11.1398 4.67216C11.7849 4.65201 15.9426 4.69232 16.0333 4.72256C16.5474 4.87879 17.0514 5.32733 17.3134 5.87666C17.4848 6.23951 17.4898 6.25967 17.4697 6.7586C17.4495 7.2273 17.4344 7.29785 17.2882 7.55488C17.127 7.8371 16.5827 8.40659 16.4718 8.40659C16.4416 8.40659 16.3559 8.45195 16.2803 8.50738C16.1946 8.5729 16.0283 8.61826 15.8166 8.63842C15.2875 8.68377 15.2774 8.68881 15.2522 8.88536C15.2219 9.12727 15.3076 9.18774 15.6856 9.18774C16.0233 9.18774 16.6028 8.9912 16.9254 8.76441C17.263 8.52754 17.6763 8.03869 17.7872 7.75143C17.8426 7.60024 17.9132 7.444 17.9434 7.40873C18.024 7.31801 18.0593 6.35543 17.9938 6.13872C17.893 5.8061 17.6964 5.37772 17.5856 5.26181C17.5301 5.20133 17.4797 5.12574 17.4797 5.10054C17.4797 5.05518 17.3537 4.93423 16.9002 4.53105C16.8447 4.48066 16.7087 4.4101 16.5978 4.37482C16.4869 4.33954 16.3408 4.27403 16.2702 4.22867C16.1593 4.15811 15.8418 4.143 13.579 4.12284C11.1751 4.09764 11.0088 4.0926 10.9584 4.00692C10.913 3.93637 10.9231 3.90109 10.9987 3.84565C11.1398 3.73982 11.4522 3.43744 12.0721 2.80243C12.6164 2.24303 12.6315 2.22287 12.5963 2.05152C12.566 1.90033 12.5459 1.88017 12.3896 1.87009C12.2233 1.86001 12.1477 1.93056 11.044 3.0393Z" fill="white" stroke="white" stroke-width="0.4"/>
</svg>
