<svg width="33" height="33" viewBox="0 0 33 33" fill="none" xmlns="http://www.w3.org/2000/svg">
<g filter="url(#filter0_d_720_1008)">
<path d="M27.1953 1.12855C27.0103 1.2175 26.5169 1.4296 26.1057 1.60066C25.6945 1.77171 25.2971 1.95645 25.2148 2.01118C25.1394 2.06592 25.0366 2.11381 24.9887 2.11381C24.9407 2.11381 24.7009 2.20276 24.4678 2.31908C24.228 2.42855 24.0087 2.52434 23.9813 2.52434C23.9539 2.52434 23.7414 2.61329 23.5084 2.71592C23.1041 2.90065 22.7957 3.0375 21.7129 3.49592C21.4525 3.60539 21.0893 3.77644 20.9043 3.86539C20.7261 3.95434 20.5411 4.0296 20.4863 4.0296C20.4383 4.0296 20.2601 4.10486 20.0956 4.18697C19.9312 4.27592 19.6296 4.40592 19.4378 4.46749C19.239 4.53592 19.0608 4.61118 19.0403 4.64539C19.0197 4.6796 18.8415 4.75486 18.6428 4.82328C18.4509 4.88486 18.2042 4.99434 18.1014 5.06276C18.0055 5.13802 17.8821 5.19276 17.8273 5.19276C17.7793 5.19276 17.5532 5.28855 17.327 5.39802C17.1009 5.50749 16.8679 5.60328 16.8131 5.60328C16.7582 5.60328 16.6006 5.6717 16.4704 5.74697C16.3402 5.82907 16.0661 5.95223 15.8674 6.02065C15.6755 6.08907 15.4425 6.1917 15.3602 6.24644C15.278 6.30802 15.1615 6.35591 15.0998 6.35591C15.045 6.35591 14.8463 6.43118 14.6544 6.52012C14.3391 6.67749 13.6675 6.96486 12.8041 7.32749C12.619 7.4096 12.2421 7.5738 11.9749 7.69696C11.7076 7.82696 11.4609 7.92959 11.4266 7.92959C11.3924 7.92959 11.2553 7.98433 11.1251 8.05959C10.9949 8.12802 10.8099 8.20328 10.7139 8.23065C10.618 8.25801 10.3576 8.36749 10.1314 8.47696C9.90526 8.57959 9.48723 8.76433 9.20626 8.88749C8.92528 9.0038 8.53466 9.17486 8.34963 9.27065C8.15775 9.35959 7.95901 9.43486 7.91104 9.43486C7.85622 9.43486 7.68489 9.51012 7.53413 9.59907C7.37651 9.68801 7.17777 9.7838 7.08183 9.81117C6.98589 9.8317 6.75974 9.92749 6.56786 10.0164C5.2932 10.6049 5.03279 10.7349 5.00538 10.7827C4.99167 10.8101 5.00538 10.9333 5.03279 11.0496C5.10132 11.2822 5.08076 11.2754 6.60212 11.6585C6.84883 11.7201 7.29427 11.8433 7.5958 11.9322C7.89734 12.0212 8.32907 12.1443 8.55522 12.1991C9.37073 12.3975 9.86414 12.5343 10.3713 12.6849C10.6522 12.7738 11.0703 12.8764 11.2964 12.9243C11.5226 12.9654 11.8241 13.0475 11.968 13.1022C12.1051 13.157 12.3723 13.2322 12.5505 13.2664C12.7287 13.3075 13.0713 13.3964 13.318 13.4717C13.5648 13.5401 13.9759 13.6496 14.2432 13.7112C14.9696 13.8754 15.23 14.1833 15.3739 15.0727C15.4151 15.3327 15.5041 15.668 15.5727 15.8254C15.6412 15.9827 15.7234 16.277 15.7509 16.4822C15.7783 16.6875 15.8605 16.9954 15.929 17.1596C16.0044 17.3238 16.0935 17.6796 16.1346 17.9464C16.1757 18.2133 16.2717 18.5417 16.3402 18.6785C16.4087 18.8154 16.4978 19.1369 16.5389 19.3901C16.5801 19.6433 16.6623 19.9443 16.7171 20.0538C16.7719 20.1633 16.861 20.4985 16.9159 20.7927C16.9707 21.0869 17.0598 21.4222 17.1146 21.5317C17.1763 21.648 17.2585 21.9627 17.2996 22.2433C17.3407 22.5169 17.423 22.8317 17.4778 22.948C17.5395 23.0575 17.6354 23.3312 17.6971 23.5638C17.7862 23.8922 17.841 23.9811 17.9575 23.9948C18.1905 24.029 18.3687 23.8922 18.4578 23.6185C18.5058 23.4748 18.5811 23.3106 18.6291 23.2559C18.6771 23.2012 18.7525 23.0301 18.7936 22.8796C18.8758 22.6127 18.9581 22.4212 19.4103 21.4769C19.5268 21.2306 19.6228 20.9843 19.6228 20.9296C19.6228 20.8748 19.705 20.7038 19.7941 20.5533C19.8901 20.4027 19.9654 20.2317 19.9654 20.1701C19.9654 20.1085 20.0545 19.8964 20.1642 19.6912C20.267 19.4859 20.3766 19.2327 20.404 19.1233C20.4314 19.0069 20.5137 18.8427 20.5822 18.7469C20.6507 18.6443 20.7398 18.4459 20.7809 18.2954C20.8221 18.1448 20.8974 17.9601 20.9454 17.8848C21.0002 17.8096 21.0962 17.5838 21.1579 17.3922C21.2264 17.1938 21.3018 17.0159 21.336 16.9954C21.3703 16.9748 21.4457 16.8106 21.5005 16.6327C21.5622 16.4548 21.6855 16.1606 21.7815 15.9759C21.8774 15.7912 21.9528 15.5859 21.9528 15.5312C21.9528 15.4696 22.035 15.2985 22.1241 15.148C22.2201 14.9975 22.2955 14.8264 22.2955 14.7717C22.2955 14.717 22.3914 14.4706 22.5079 14.2243C22.9945 13.2117 23.0493 13.0817 23.111 12.8285C23.1521 12.6849 23.2206 12.5138 23.2754 12.4522C23.3303 12.3906 23.4125 12.2196 23.4605 12.0691C23.5084 11.9185 23.6181 11.6722 23.7072 11.5149C23.7963 11.3643 23.8716 11.1864 23.8716 11.118C23.8716 11.0564 23.9676 10.8306 24.0772 10.6185C24.1937 10.4064 24.2828 10.1875 24.2828 10.1259C24.2828 10.0643 24.3651 9.89328 24.4541 9.74275C24.5501 9.59222 24.6255 9.42117 24.6255 9.36643C24.6255 9.3117 24.7009 9.12696 24.7899 8.95591C24.879 8.78486 24.9887 8.52486 25.0366 8.37433C25.0846 8.2238 25.1806 8.03223 25.2491 7.94328C25.3176 7.85433 25.393 7.69012 25.4136 7.56696C25.441 7.44381 25.5164 7.25223 25.5849 7.14275C25.6534 7.02644 25.7425 6.82802 25.7836 6.69802C25.8247 6.56802 25.9344 6.30802 26.0303 6.12328C26.1263 5.93855 26.2017 5.74697 26.2017 5.69223C26.2017 5.64433 26.277 5.4596 26.373 5.2817C26.6471 4.74118 26.9555 4.04329 26.9555 3.94749C26.9555 3.8996 27.024 3.74907 27.0994 3.61907C27.1816 3.48907 27.2913 3.22907 27.3461 3.0375C27.4009 2.85276 27.49 2.6475 27.5448 2.58592C27.5997 2.52434 27.6888 2.32592 27.7436 2.13434C27.7984 1.94276 27.8943 1.75118 27.9492 1.70329C28.0725 1.60066 28.0862 1.19697 27.9697 1.10803C27.7778 0.9575 27.5311 0.964342 27.1953 1.12855ZM26.839 2.27802C26.8595 2.32592 26.8184 2.45592 26.743 2.56539C26.6745 2.67487 26.6128 2.81171 26.6128 2.87329C26.6128 2.93487 26.5237 3.15381 26.4072 3.36592C26.2976 3.57802 26.2017 3.79013 26.2017 3.83802C26.2017 3.88592 26.1057 4.11171 25.9961 4.33749C25.8796 4.56328 25.7905 4.79592 25.7905 4.85749C25.7905 4.91907 25.7288 5.04907 25.6466 5.1517C25.5643 5.25434 25.4615 5.48697 25.4136 5.67854C25.3587 5.87012 25.2765 6.07539 25.2217 6.14381C25.16 6.20539 25.0846 6.38328 25.0435 6.53381C25.0024 6.69118 24.8927 6.95118 24.8036 7.11539C24.7146 7.2796 24.6186 7.51223 24.5912 7.63538C24.5706 7.7517 24.5021 7.88854 24.4473 7.93644C24.3993 7.97749 24.3034 8.16907 24.2486 8.36065C24.1937 8.55223 24.1046 8.75065 24.0567 8.81222C24.0018 8.8738 23.9265 9.0517 23.8785 9.21591C23.8305 9.38012 23.7209 9.6538 23.6249 9.82485C23.5358 9.99591 23.4605 10.1875 23.4605 10.2491C23.4605 10.3106 23.3919 10.468 23.3165 10.598C23.2343 10.728 23.1247 10.9743 23.0767 11.1522C23.0219 11.3301 22.9328 11.508 22.878 11.5559C22.8231 11.6038 22.7752 11.6927 22.7752 11.7543C22.7752 11.8159 22.6655 12.0759 22.5353 12.3359C22.4051 12.6027 22.2955 12.8627 22.2955 12.9175C22.2955 12.9791 22.2132 13.1501 22.1241 13.3006C22.0282 13.4512 21.9528 13.6222 21.9528 13.677C21.9528 13.7317 21.8774 13.9301 21.7883 14.1217C21.4457 14.8401 21.2127 15.3601 21.1716 15.5243C21.1236 15.6954 20.918 16.1538 20.6096 16.7764C20.5205 16.9543 20.4451 17.1391 20.4451 17.1938C20.4451 17.2417 20.3561 17.4538 20.2396 17.6659C20.1299 17.878 20.034 18.0969 20.034 18.1448C20.034 18.1996 19.9449 18.4117 19.8284 18.6238C19.7187 18.8359 19.6228 19.0617 19.6228 19.1233C19.6228 19.1848 19.5474 19.3764 19.4583 19.5543C19.1842 20.0675 18.869 20.779 18.869 20.8748C18.869 20.9227 18.8004 21.0733 18.7182 21.2033C18.6428 21.3333 18.5195 21.6069 18.4646 21.8122C18.403 22.0175 18.3139 22.1954 18.2728 22.209C18.1425 22.2569 17.7725 21.3675 17.6765 20.7859C17.6217 20.4985 17.5326 20.1769 17.471 20.0606C17.4161 19.9443 17.3339 19.6433 17.2928 19.3901C17.2517 19.1369 17.1694 18.8359 17.1146 18.7264C17.0598 18.6169 16.9707 18.2817 16.9159 17.9875C16.861 17.6933 16.7719 17.358 16.7103 17.2417C16.6554 17.1254 16.5595 16.7901 16.5115 16.4959C16.4567 16.2017 16.3676 15.8664 16.3128 15.757C16.258 15.6475 16.1757 15.3327 16.1346 15.0591C16.0935 14.7785 16.0113 14.4706 15.9564 14.368C15.9016 14.2585 15.8262 14.0259 15.7783 13.8412C15.6755 13.417 15.6275 13.3622 15.3397 13.3075C15.2095 13.2801 14.9765 13.2048 14.812 13.1296C14.6475 13.0612 14.3049 12.9654 14.0376 12.9175C13.7772 12.8764 13.4688 12.7943 13.366 12.7396C13.2564 12.6849 12.9343 12.5959 12.6465 12.5412C12.3586 12.4864 12.0297 12.3975 11.9132 12.3496C11.8035 12.2949 11.4472 12.1991 11.1251 12.1375C10.803 12.0691 10.4672 11.9801 10.3713 11.9322C10.2753 11.8843 9.99435 11.8022 9.75449 11.7612C9.50779 11.7201 9.1994 11.6312 9.0692 11.5764C8.93899 11.5217 8.6169 11.4327 8.34963 11.3849C7.67119 11.2549 6.87624 10.9401 6.87624 10.8033C6.87624 10.7417 7.85622 10.1875 7.97272 10.1875C8.01384 10.1875 8.23998 10.0985 8.47299 9.98907C8.70599 9.87959 9.17884 9.67433 9.51464 9.53749C9.85729 9.3938 10.1931 9.23643 10.2685 9.18854C10.3439 9.14065 10.5426 9.06538 10.7139 9.02433C10.8852 8.97643 11.0703 8.90117 11.1251 8.85328C11.1799 8.80538 11.3924 8.71644 11.5842 8.65486C11.783 8.58644 11.9612 8.51117 11.9817 8.47696C12.0023 8.44275 12.2147 8.3538 12.4614 8.2717C12.7081 8.18959 12.9206 8.10065 12.9411 8.06644C12.9617 8.03223 13.133 7.95696 13.3318 7.88854C13.5236 7.82696 13.7772 7.71749 13.8937 7.65591C14.0102 7.58749 14.2021 7.51223 14.3254 7.48486C14.4419 7.46433 14.579 7.39591 14.627 7.34118C14.6681 7.29328 14.8463 7.20433 15.0244 7.1496C15.326 7.06065 15.8331 6.84854 16.4362 6.56118C16.5869 6.49275 16.9296 6.34223 17.19 6.22591C17.4572 6.11644 17.9233 5.91118 18.2248 5.78118C18.5332 5.64433 18.821 5.53486 18.8621 5.53486C18.9101 5.53486 19.0608 5.47328 19.1979 5.40486C19.335 5.3296 19.7119 5.1517 20.034 5.01486C20.3561 4.87802 20.8015 4.6796 21.0208 4.57013C21.2401 4.46065 21.4731 4.37171 21.5348 4.37171C21.5964 4.37171 21.7129 4.32381 21.7952 4.26907C21.8774 4.20749 22.083 4.11855 22.2406 4.05697C22.4051 4.00223 22.6587 3.8996 22.8094 3.82434C23.3097 3.57802 24.1937 3.20855 24.276 3.20855C24.3171 3.20855 24.4953 3.13329 24.6734 3.04434C26.2017 2.28487 26.7636 2.08644 26.839 2.27802Z" fill="white" stroke="white" stroke-width="0.8"/>
</g>
<defs>
<filter id="filter0_d_720_1008" x="0.600098" y="0.599854" width="31.8496" height="31.8" filterUnits="userSpaceOnUse" color-interpolation-filters="sRGB">
<feFlood flood-opacity="0" result="BackgroundImageFix"/>
<feColorMatrix in="SourceAlpha" type="matrix" values="0 0 0 0 0 0 0 0 0 0 0 0 0 0 0 0 0 0 127 0" result="hardAlpha"/>
<feOffset dy="4"/>
<feGaussianBlur stdDeviation="2"/>
<feComposite in2="hardAlpha" operator="out"/>
<feColorMatrix type="matrix" values="0 0 0 0 0 0 0 0 0 0 0 0 0 0 0 0 0 0 0.25 0"/>
<feBlend mode="normal" in2="BackgroundImageFix" result="effect1_dropShadow_720_1008"/>
<feBlend mode="normal" in="SourceGraphic" in2="effect1_dropShadow_720_1008" result="shape"/>
</filter>
</defs>
</svg>
