<svg width="48" height="35" viewBox="0 0 48 35" fill="none" xmlns="http://www.w3.org/2000/svg">
<path d="M3.69699 0.698052C2.41788 1.27314 1.19827 2.34489 0.54385 3.49507C-0.0213341 4.43613 -0.0510807 5.01121 0.038159 14.9968L0.127399 25.5314L0.960302 26.6293C1.4065 27.2305 2.32864 28.0409 3.01281 28.433L4.26217 29.1649L23.1512 29.2434C36.2397 29.2956 42.427 29.2434 43.2004 29.0342C44.5985 28.6683 46.2346 27.4135 47.008 26.1065C47.5732 25.1393 47.6029 24.6165 47.5137 14.4218L47.4244 3.75648L46.6213 2.737C46.1751 2.18805 45.3124 1.42998 44.6877 1.06402L43.5871 0.410508L24.1031 0.332086C6.85012 0.279806 4.50014 0.332086 3.69699 0.698052ZM42.5757 3.93946C42.6947 3.93946 42.9922 4.12244 43.2302 4.3577C43.6466 4.69753 43.7061 6.00455 43.7061 14.7093C43.7061 23.6232 43.6466 24.7211 43.2004 25.1655C42.7542 25.6098 41.7428 25.636 23.7462 25.636H4.76786L4.32166 25.0609C3.93496 24.5904 3.87546 22.9958 3.84572 14.6309V4.77595L4.52989 4.27928C5.21406 3.80876 10.4197 3.75648 42.5757 3.93946Z" fill="#ED7844"/>
<path d="M11.4494 9.99464C10.8842 10.622 10.8842 10.7527 11.2709 11.4062C11.7171 12.1643 12.431 12.4518 14.0373 12.4518H14.9892V15.5625C14.9892 18.3073 15.0487 18.7255 15.6139 19.3529C16.3278 20.1371 17.3689 20.2417 18.0531 19.562C18.4695 19.1699 18.5588 18.4903 18.5588 15.7717V12.4518H19.8676C22.1581 12.4518 23.5562 10.8311 22.1879 9.75938C21.7119 9.39341 20.879 9.31499 16.8335 9.31499H12.0443L11.4494 9.99464Z" fill="#ED7844"/>
<path d="M24.8467 9.97739C24.4302 10.2649 24.0732 10.6832 24.0732 10.8923C24.0732 11.1276 25.1441 13.1665 26.4827 15.4669C28.4757 18.9174 29.0112 19.6493 29.6358 19.78C30.0523 19.8846 30.6175 19.8585 30.8852 19.7016C31.1529 19.5709 32.4618 17.5581 33.8301 15.2316C36.418 10.7616 36.5073 10.3695 35.0795 9.68985C33.9788 9.16704 33.2054 9.84669 31.6289 12.6176L30.1415 15.2316L28.7137 12.8006C27.4049 10.5525 26.453 9.42844 25.858 9.42844C25.739 9.42844 25.2928 9.66371 24.8467 9.97739Z" fill="#ED7844"/>
<path d="M9.43801 31.9622C8.45637 32.7987 8.42663 32.9555 9.22978 33.8443L9.85446 34.5239L23.8353 34.4716L37.846 34.3932L38.4111 33.7136C38.9763 33.0601 38.9763 32.9816 38.5301 32.1974C38.2624 31.753 37.9352 31.3871 37.8162 31.3871C37.6972 31.3871 31.4505 31.3609 23.9246 31.3087L10.2412 31.2564L9.43801 31.9622Z" fill="#ED7844"/>
</svg>
