<svg width="45" height="42" viewBox="0 0 45 42" fill="none" xmlns="http://www.w3.org/2000/svg">
<g clip-path="url(#clip0_1528_215)">
<path d="M20.1339 5.75233C28.2155 5.20055 36.4843 8.06712 42.2522 13.4661C43.0079 14.2037 42.9094 15.4939 42.1121 16.1699C41.3797 16.9883 39.9132 17.0028 39.1574 16.2055C34.2232 11.7021 27.2567 9.26689 20.4162 9.75124C14.7335 10.0978 9.22846 12.4184 5.10487 16.1352C4.73815 16.4906 4.26986 16.7823 3.7306 16.8073C2.37978 16.9575 1.13054 15.6191 1.42207 14.3664C1.50433 13.9167 1.80897 13.5422 2.15732 13.2427C6.98495 8.86054 13.466 6.16923 20.1339 5.75233Z" fill="#ED7844"/>
<path d="M19.9339 13.266C26.1255 12.6276 32.5547 14.7912 36.9362 18.9856C37.6208 19.727 37.5355 20.9394 36.7748 21.6057C36.081 22.4106 34.6825 22.501 33.8963 21.7711C31.0911 19.1492 27.2985 17.4844 23.3659 17.2119C18.5901 16.8363 13.7108 18.5541 10.3103 21.7442C9.52619 22.53 8.06561 22.4406 7.35985 21.6046C6.59907 20.9239 6.53613 19.6788 7.26638 18.9576C10.6364 15.7609 15.1937 13.7272 19.9339 13.266Z" fill="#ED7844"/>
<path d="M20.849 20.679C24.7562 20.3112 28.7956 21.7296 31.5145 24.4122C32.259 25.1468 32.1728 26.4112 31.3885 27.091C30.6766 27.9057 29.2495 27.9606 28.4756 27.1969C26.9431 25.7055 24.8202 24.7627 22.6223 24.6491C20.1278 24.4805 17.6038 25.4146 15.8325 27.0765C15.3968 27.5407 14.7498 27.8257 14.0875 27.7516C12.5499 27.6495 11.4824 25.7034 12.5417 24.5355C14.6807 22.3362 17.7186 20.9737 20.849 20.679Z" fill="#ED7844"/>
<path d="M21.4513 27.6013C23.9692 27.2007 26.5246 29.1718 26.6059 31.5924C26.8395 33.966 24.6293 36.2183 22.1167 36.1661C19.8579 36.2404 17.7645 34.4638 17.5664 32.3339C17.2443 30.098 19.0888 27.8593 21.4513 27.6013Z" fill="#ED7844"/>
</g>
<defs>
<clipPath id="clip0_1528_215">
<rect width="44.1477" height="41.8537" fill="white"/>
</clipPath>
</defs>
</svg>
